<?xml version="1.0" encoding="UTF-8"?>
<svg version="1.1" xmlns="http://www.w3.org/2000/svg" width="16" height="16">
<path d="M0 0 C5.28 0 10.56 0 16 0 C16 5.28 16 10.56 16 16 C10.72 16 5.44 16 0 16 C0 10.72 0 5.44 0 0 Z " fill="#080400" transform="translate(0,0)"/>
<path d="M0 0 C0.66 0 1.32 0 2 0 C2.33 1.32 2.66 2.64 3 4 C3.61875 3.34 4.2375 2.68 4.875 2 C7 0 7 0 9 0 C7.71480435 2.86697492 6.42870746 4.97607712 4 7 C3.34 7 2.68 7 2 7 C2 7.66 2 8.32 2 9 C1.34 9 0.68 9 0 9 C0 6.03 0 3.06 0 0 Z " fill="#AB5A00" transform="translate(1,3)"/>
<path d="M0 0 C0.66 0 1.32 0 2 0 C2 2.97 2 5.94 2 9 C1.34 9 0.68 9 0 9 C-0.33 7.68 -0.66 6.36 -1 5 C-1.928125 5.99 -1.928125 5.99 -2.875 7 C-5 9 -5 9 -7 9 C-7 8.34 -7 7.68 -7 7 C-5.01739574 5.31267723 -3.0167658 3.64633943 -1 2 C-0.67 1.34 -0.34 0.68 0 0 Z " fill="#B55F00" transform="translate(13,4)"/>
</svg>
